<mxfile host="app.diagrams.net" agent="Mozilla/5.0 (Windows NT 10.0; Win64; x64) AppleWebKit/537.36 (KHTML, like Gecko) Chrome/130.0.0.0 Safari/537.36" version="24.8.4">
  <diagram id="C5RBs43oDa-KdzZeNtuy" name="Page-1">
    <mxGraphModel dx="1615" dy="875" grid="1" gridSize="10" guides="1" tooltips="1" connect="1" arrows="1" fold="1" page="1" pageScale="1" pageWidth="1654" pageHeight="1169" math="0" shadow="0">
      <root>
        <mxCell id="WIyWlLk6GJQsqaUBKTNV-0" />
        <mxCell id="WIyWlLk6GJQsqaUBKTNV-1" parent="WIyWlLk6GJQsqaUBKTNV-0" />
        <mxCell id="iAaCRggJzsT1VxWrFZey-20" style="edgeStyle=orthogonalEdgeStyle;rounded=0;orthogonalLoop=1;jettySize=auto;html=1;entryX=0.5;entryY=0;entryDx=0;entryDy=0;" edge="1" parent="WIyWlLk6GJQsqaUBKTNV-1" source="iAaCRggJzsT1VxWrFZey-1" target="iAaCRggJzsT1VxWrFZey-2">
          <mxGeometry relative="1" as="geometry" />
        </mxCell>
        <mxCell id="iAaCRggJzsT1VxWrFZey-1" value="Reposo" style="rounded=1;whiteSpace=wrap;html=1;fontSize=12;glass=0;strokeWidth=1;shadow=0;" vertex="1" parent="WIyWlLk6GJQsqaUBKTNV-1">
          <mxGeometry x="140" y="50" width="120" height="40" as="geometry" />
        </mxCell>
        <mxCell id="iAaCRggJzsT1VxWrFZey-21" style="edgeStyle=orthogonalEdgeStyle;rounded=0;orthogonalLoop=1;jettySize=auto;html=1;" edge="1" parent="WIyWlLk6GJQsqaUBKTNV-1" source="iAaCRggJzsT1VxWrFZey-2" target="iAaCRggJzsT1VxWrFZey-3">
          <mxGeometry relative="1" as="geometry" />
        </mxCell>
        <mxCell id="iAaCRggJzsT1VxWrFZey-31" value="Sí" style="edgeLabel;html=1;align=center;verticalAlign=middle;resizable=0;points=[];" vertex="1" connectable="0" parent="iAaCRggJzsT1VxWrFZey-21">
          <mxGeometry x="-0.0449" y="-2" relative="1" as="geometry">
            <mxPoint x="22" y="3" as="offset" />
          </mxGeometry>
        </mxCell>
        <mxCell id="iAaCRggJzsT1VxWrFZey-29" style="edgeStyle=orthogonalEdgeStyle;rounded=0;orthogonalLoop=1;jettySize=auto;html=1;exitX=0;exitY=0.5;exitDx=0;exitDy=0;entryX=0;entryY=0.5;entryDx=0;entryDy=0;" edge="1" parent="WIyWlLk6GJQsqaUBKTNV-1" source="iAaCRggJzsT1VxWrFZey-2" target="iAaCRggJzsT1VxWrFZey-5">
          <mxGeometry relative="1" as="geometry">
            <Array as="points">
              <mxPoint x="80" y="240" />
              <mxPoint x="80" y="820" />
            </Array>
          </mxGeometry>
        </mxCell>
        <mxCell id="iAaCRggJzsT1VxWrFZey-30" value="No" style="edgeLabel;html=1;align=center;verticalAlign=middle;resizable=0;points=[];" vertex="1" connectable="0" parent="iAaCRggJzsT1VxWrFZey-29">
          <mxGeometry x="-0.3557" y="-4" relative="1" as="geometry">
            <mxPoint x="44" y="-169" as="offset" />
          </mxGeometry>
        </mxCell>
        <mxCell id="iAaCRggJzsT1VxWrFZey-2" value="¿Botón de dirección?" style="rhombus;whiteSpace=wrap;html=1;shadow=0;fontFamily=Helvetica;fontSize=12;align=center;strokeWidth=1;spacing=6;spacingTop=-4;" vertex="1" parent="WIyWlLk6GJQsqaUBKTNV-1">
          <mxGeometry x="150" y="200" width="100" height="80" as="geometry" />
        </mxCell>
        <mxCell id="iAaCRggJzsT1VxWrFZey-24" style="edgeStyle=orthogonalEdgeStyle;rounded=0;orthogonalLoop=1;jettySize=auto;html=1;entryX=0.5;entryY=0;entryDx=0;entryDy=0;" edge="1" parent="WIyWlLk6GJQsqaUBKTNV-1" source="iAaCRggJzsT1VxWrFZey-3" target="iAaCRggJzsT1VxWrFZey-4">
          <mxGeometry relative="1" as="geometry" />
        </mxCell>
        <mxCell id="iAaCRggJzsT1VxWrFZey-32" value="No" style="edgeLabel;html=1;align=center;verticalAlign=middle;resizable=0;points=[];" vertex="1" connectable="0" parent="iAaCRggJzsT1VxWrFZey-24">
          <mxGeometry x="-0.0449" y="1" relative="1" as="geometry">
            <mxPoint x="19" y="3" as="offset" />
          </mxGeometry>
        </mxCell>
        <mxCell id="iAaCRggJzsT1VxWrFZey-26" style="edgeStyle=orthogonalEdgeStyle;rounded=0;orthogonalLoop=1;jettySize=auto;html=1;entryX=0;entryY=0.5;entryDx=0;entryDy=0;" edge="1" parent="WIyWlLk6GJQsqaUBKTNV-1" source="iAaCRggJzsT1VxWrFZey-3" target="iAaCRggJzsT1VxWrFZey-7">
          <mxGeometry relative="1" as="geometry" />
        </mxCell>
        <mxCell id="iAaCRggJzsT1VxWrFZey-34" value="Sí" style="edgeLabel;html=1;align=center;verticalAlign=middle;resizable=0;points=[];" vertex="1" connectable="0" parent="iAaCRggJzsT1VxWrFZey-26">
          <mxGeometry x="-0.2782" y="-5" relative="1" as="geometry">
            <mxPoint x="7" y="-25" as="offset" />
          </mxGeometry>
        </mxCell>
        <mxCell id="iAaCRggJzsT1VxWrFZey-3" value="¿Está ya en movimiento?" style="rhombus;whiteSpace=wrap;html=1;shadow=0;fontFamily=Helvetica;fontSize=12;align=center;strokeWidth=1;spacing=6;spacingTop=-4;" vertex="1" parent="WIyWlLk6GJQsqaUBKTNV-1">
          <mxGeometry x="150" y="400" width="100" height="80" as="geometry" />
        </mxCell>
        <mxCell id="iAaCRggJzsT1VxWrFZey-25" style="edgeStyle=orthogonalEdgeStyle;rounded=0;orthogonalLoop=1;jettySize=auto;html=1;entryX=0.5;entryY=0;entryDx=0;entryDy=0;" edge="1" parent="WIyWlLk6GJQsqaUBKTNV-1" source="iAaCRggJzsT1VxWrFZey-4" target="iAaCRggJzsT1VxWrFZey-5">
          <mxGeometry relative="1" as="geometry" />
        </mxCell>
        <mxCell id="iAaCRggJzsT1VxWrFZey-33" value="Sí" style="edgeLabel;html=1;align=center;verticalAlign=middle;resizable=0;points=[];" vertex="1" connectable="0" parent="iAaCRggJzsT1VxWrFZey-25">
          <mxGeometry x="0.0577" y="4" relative="1" as="geometry">
            <mxPoint x="16" as="offset" />
          </mxGeometry>
        </mxCell>
        <mxCell id="iAaCRggJzsT1VxWrFZey-28" style="edgeStyle=orthogonalEdgeStyle;rounded=0;orthogonalLoop=1;jettySize=auto;html=1;entryX=0;entryY=0.5;entryDx=0;entryDy=0;" edge="1" parent="WIyWlLk6GJQsqaUBKTNV-1" source="iAaCRggJzsT1VxWrFZey-4" target="iAaCRggJzsT1VxWrFZey-6">
          <mxGeometry relative="1" as="geometry" />
        </mxCell>
        <mxCell id="iAaCRggJzsT1VxWrFZey-35" value="No" style="edgeLabel;html=1;align=center;verticalAlign=middle;resizable=0;points=[];" vertex="1" connectable="0" parent="iAaCRggJzsT1VxWrFZey-28">
          <mxGeometry x="-0.3305" y="-3" relative="1" as="geometry">
            <mxPoint x="63" y="-23" as="offset" />
          </mxGeometry>
        </mxCell>
        <mxCell id="iAaCRggJzsT1VxWrFZey-4" value="¿Hay muro?" style="rhombus;whiteSpace=wrap;html=1;" vertex="1" parent="WIyWlLk6GJQsqaUBKTNV-1">
          <mxGeometry x="150" y="600" width="100" height="80" as="geometry" />
        </mxCell>
        <mxCell id="iAaCRggJzsT1VxWrFZey-5" value="No mover" style="rounded=1;whiteSpace=wrap;html=1;fontSize=12;glass=0;strokeWidth=1;shadow=0;" vertex="1" parent="WIyWlLk6GJQsqaUBKTNV-1">
          <mxGeometry x="140" y="800" width="120" height="40" as="geometry" />
        </mxCell>
        <mxCell id="iAaCRggJzsT1VxWrFZey-14" style="edgeStyle=orthogonalEdgeStyle;rounded=0;orthogonalLoop=1;jettySize=auto;html=1;entryX=0;entryY=0.5;entryDx=0;entryDy=0;" edge="1" parent="WIyWlLk6GJQsqaUBKTNV-1" source="iAaCRggJzsT1VxWrFZey-6" target="iAaCRggJzsT1VxWrFZey-9">
          <mxGeometry relative="1" as="geometry">
            <Array as="points">
              <mxPoint x="760" y="640" />
              <mxPoint x="760" y="540" />
            </Array>
          </mxGeometry>
        </mxCell>
        <mxCell id="iAaCRggJzsT1VxWrFZey-6" value="Mover dirección del botón" style="rounded=1;whiteSpace=wrap;html=1;fontSize=12;glass=0;strokeWidth=1;shadow=0;" vertex="1" parent="WIyWlLk6GJQsqaUBKTNV-1">
          <mxGeometry x="600" y="620" width="120" height="40" as="geometry" />
        </mxCell>
        <mxCell id="iAaCRggJzsT1VxWrFZey-27" style="edgeStyle=orthogonalEdgeStyle;rounded=0;orthogonalLoop=1;jettySize=auto;html=1;exitX=1;exitY=0.5;exitDx=0;exitDy=0;entryX=0;entryY=0.5;entryDx=0;entryDy=0;" edge="1" parent="WIyWlLk6GJQsqaUBKTNV-1" source="iAaCRggJzsT1VxWrFZey-7" target="iAaCRggJzsT1VxWrFZey-8">
          <mxGeometry relative="1" as="geometry" />
        </mxCell>
        <mxCell id="iAaCRggJzsT1VxWrFZey-36" value="Sí" style="edgeLabel;html=1;align=center;verticalAlign=middle;resizable=0;points=[];" vertex="1" connectable="0" parent="iAaCRggJzsT1VxWrFZey-27">
          <mxGeometry x="-0.2391" y="-2" relative="1" as="geometry">
            <mxPoint x="11" y="-22" as="offset" />
          </mxGeometry>
        </mxCell>
        <mxCell id="iAaCRggJzsT1VxWrFZey-37" style="edgeStyle=orthogonalEdgeStyle;rounded=0;orthogonalLoop=1;jettySize=auto;html=1;exitX=0.5;exitY=1;exitDx=0;exitDy=0;entryX=0.5;entryY=0;entryDx=0;entryDy=0;" edge="1" parent="WIyWlLk6GJQsqaUBKTNV-1" source="iAaCRggJzsT1VxWrFZey-7" target="iAaCRggJzsT1VxWrFZey-6">
          <mxGeometry relative="1" as="geometry" />
        </mxCell>
        <mxCell id="iAaCRggJzsT1VxWrFZey-38" value="No" style="edgeLabel;html=1;align=center;verticalAlign=middle;resizable=0;points=[];" vertex="1" connectable="0" parent="iAaCRggJzsT1VxWrFZey-37">
          <mxGeometry x="0.2725" y="-1" relative="1" as="geometry">
            <mxPoint x="-42" y="-11" as="offset" />
          </mxGeometry>
        </mxCell>
        <mxCell id="iAaCRggJzsT1VxWrFZey-7" value="¿Hay muro?" style="rhombus;whiteSpace=wrap;html=1;" vertex="1" parent="WIyWlLk6GJQsqaUBKTNV-1">
          <mxGeometry x="370" y="400" width="100" height="80" as="geometry" />
        </mxCell>
        <mxCell id="iAaCRggJzsT1VxWrFZey-13" style="edgeStyle=orthogonalEdgeStyle;rounded=0;orthogonalLoop=1;jettySize=auto;html=1;exitX=1;exitY=0.5;exitDx=0;exitDy=0;entryX=0;entryY=0.5;entryDx=0;entryDy=0;" edge="1" parent="WIyWlLk6GJQsqaUBKTNV-1" source="iAaCRggJzsT1VxWrFZey-8" target="iAaCRggJzsT1VxWrFZey-9">
          <mxGeometry relative="1" as="geometry">
            <Array as="points">
              <mxPoint x="760" y="440" />
              <mxPoint x="760" y="540" />
            </Array>
          </mxGeometry>
        </mxCell>
        <mxCell id="iAaCRggJzsT1VxWrFZey-8" value="Mantener dirección anterior" style="rounded=1;whiteSpace=wrap;html=1;fontSize=12;glass=0;strokeWidth=1;shadow=0;" vertex="1" parent="WIyWlLk6GJQsqaUBKTNV-1">
          <mxGeometry x="600" y="420" width="120" height="40" as="geometry" />
        </mxCell>
        <mxCell id="iAaCRggJzsT1VxWrFZey-15" style="edgeStyle=orthogonalEdgeStyle;rounded=0;orthogonalLoop=1;jettySize=auto;html=1;entryX=0;entryY=0.5;entryDx=0;entryDy=0;" edge="1" parent="WIyWlLk6GJQsqaUBKTNV-1" source="iAaCRggJzsT1VxWrFZey-9" target="iAaCRggJzsT1VxWrFZey-10">
          <mxGeometry relative="1" as="geometry">
            <Array as="points">
              <mxPoint x="930" y="540" />
              <mxPoint x="930" y="440" />
            </Array>
          </mxGeometry>
        </mxCell>
        <mxCell id="iAaCRggJzsT1VxWrFZey-39" value="Sí" style="edgeLabel;html=1;align=center;verticalAlign=middle;resizable=0;points=[];" vertex="1" connectable="0" parent="iAaCRggJzsT1VxWrFZey-15">
          <mxGeometry x="-0.0277" relative="1" as="geometry">
            <mxPoint x="10" y="-3" as="offset" />
          </mxGeometry>
        </mxCell>
        <mxCell id="iAaCRggJzsT1VxWrFZey-16" style="edgeStyle=orthogonalEdgeStyle;rounded=0;orthogonalLoop=1;jettySize=auto;html=1;entryX=0;entryY=0.5;entryDx=0;entryDy=0;" edge="1" parent="WIyWlLk6GJQsqaUBKTNV-1" source="iAaCRggJzsT1VxWrFZey-9" target="iAaCRggJzsT1VxWrFZey-11">
          <mxGeometry relative="1" as="geometry" />
        </mxCell>
        <mxCell id="iAaCRggJzsT1VxWrFZey-40" value="No" style="edgeLabel;html=1;align=center;verticalAlign=middle;resizable=0;points=[];" vertex="1" connectable="0" parent="iAaCRggJzsT1VxWrFZey-16">
          <mxGeometry x="0.0646" y="2" relative="1" as="geometry">
            <mxPoint x="8" as="offset" />
          </mxGeometry>
        </mxCell>
        <mxCell id="iAaCRggJzsT1VxWrFZey-9" value="¿Punto disponible?" style="rhombus;whiteSpace=wrap;html=1;" vertex="1" parent="WIyWlLk6GJQsqaUBKTNV-1">
          <mxGeometry x="790" y="500" width="100" height="80" as="geometry" />
        </mxCell>
        <mxCell id="iAaCRggJzsT1VxWrFZey-17" style="edgeStyle=orthogonalEdgeStyle;rounded=0;orthogonalLoop=1;jettySize=auto;html=1;entryX=0;entryY=0.5;entryDx=0;entryDy=0;" edge="1" parent="WIyWlLk6GJQsqaUBKTNV-1" source="iAaCRggJzsT1VxWrFZey-10" target="iAaCRggJzsT1VxWrFZey-12">
          <mxGeometry relative="1" as="geometry" />
        </mxCell>
        <mxCell id="iAaCRggJzsT1VxWrFZey-10" value="+ Contador" style="rounded=1;whiteSpace=wrap;html=1;fontSize=12;glass=0;strokeWidth=1;shadow=0;" vertex="1" parent="WIyWlLk6GJQsqaUBKTNV-1">
          <mxGeometry x="970" y="420" width="120" height="40" as="geometry" />
        </mxCell>
        <mxCell id="iAaCRggJzsT1VxWrFZey-18" style="edgeStyle=orthogonalEdgeStyle;rounded=0;orthogonalLoop=1;jettySize=auto;html=1;entryX=0;entryY=0.5;entryDx=0;entryDy=0;" edge="1" parent="WIyWlLk6GJQsqaUBKTNV-1" source="iAaCRggJzsT1VxWrFZey-11" target="iAaCRggJzsT1VxWrFZey-12">
          <mxGeometry relative="1" as="geometry">
            <mxPoint x="1160" y="649.9999999999998" as="targetPoint" />
          </mxGeometry>
        </mxCell>
        <mxCell id="iAaCRggJzsT1VxWrFZey-11" value="= Contador" style="rounded=1;whiteSpace=wrap;html=1;fontSize=12;glass=0;strokeWidth=1;shadow=0;direction=east;" vertex="1" parent="WIyWlLk6GJQsqaUBKTNV-1">
          <mxGeometry x="970" y="620" width="120" height="40" as="geometry" />
        </mxCell>
        <mxCell id="iAaCRggJzsT1VxWrFZey-19" style="edgeStyle=orthogonalEdgeStyle;rounded=0;orthogonalLoop=1;jettySize=auto;html=1;entryX=1;entryY=0.5;entryDx=0;entryDy=0;exitX=0.5;exitY=0;exitDx=0;exitDy=0;fillColor=#f8cecc;strokeColor=#b85450;" edge="1" parent="WIyWlLk6GJQsqaUBKTNV-1" source="iAaCRggJzsT1VxWrFZey-12" target="iAaCRggJzsT1VxWrFZey-1">
          <mxGeometry relative="1" as="geometry">
            <Array as="points">
              <mxPoint x="1240" y="70" />
            </Array>
          </mxGeometry>
        </mxCell>
        <mxCell id="iAaCRggJzsT1VxWrFZey-41" value="Sí" style="edgeLabel;html=1;align=center;verticalAlign=middle;resizable=0;points=[];" vertex="1" connectable="0" parent="iAaCRggJzsT1VxWrFZey-19">
          <mxGeometry x="-0.8565" y="-4" relative="1" as="geometry">
            <mxPoint x="6" y="92" as="offset" />
          </mxGeometry>
        </mxCell>
        <mxCell id="iAaCRggJzsT1VxWrFZey-42" value="Reseteas y pierdes una vida" style="edgeLabel;html=1;align=center;verticalAlign=middle;resizable=0;points=[];" vertex="1" connectable="0" parent="iAaCRggJzsT1VxWrFZey-19">
          <mxGeometry x="0.8218" y="3" relative="1" as="geometry">
            <mxPoint x="-25" y="-13" as="offset" />
          </mxGeometry>
        </mxCell>
        <mxCell id="iAaCRggJzsT1VxWrFZey-43" style="edgeStyle=orthogonalEdgeStyle;rounded=0;orthogonalLoop=1;jettySize=auto;html=1;entryX=1;entryY=0.5;entryDx=0;entryDy=0;" edge="1" parent="WIyWlLk6GJQsqaUBKTNV-1" source="iAaCRggJzsT1VxWrFZey-12" target="iAaCRggJzsT1VxWrFZey-2">
          <mxGeometry relative="1" as="geometry">
            <Array as="points">
              <mxPoint x="1350" y="540" />
              <mxPoint x="1350" y="240" />
            </Array>
          </mxGeometry>
        </mxCell>
        <mxCell id="iAaCRggJzsT1VxWrFZey-44" value="No" style="edgeLabel;html=1;align=center;verticalAlign=middle;resizable=0;points=[];" vertex="1" connectable="0" parent="iAaCRggJzsT1VxWrFZey-43">
          <mxGeometry x="-0.9309" relative="1" as="geometry">
            <mxPoint x="-21" y="10" as="offset" />
          </mxGeometry>
        </mxCell>
        <mxCell id="iAaCRggJzsT1VxWrFZey-12" value="¿Hay fantasma?" style="rhombus;whiteSpace=wrap;html=1;" vertex="1" parent="WIyWlLk6GJQsqaUBKTNV-1">
          <mxGeometry x="1190" y="500" width="100" height="80" as="geometry" />
        </mxCell>
      </root>
    </mxGraphModel>
  </diagram>
</mxfile>
